<svg preserveAspectRatio="none" overflow="visible" style="display: block;" width="16" height="16" viewBox="0 0 16 16" fill="none" xmlns="http://www.w3.org/2000/svg">
<g id="SVG - No description available">
<path id="Vector" fill-rule="evenodd" clip-rule="evenodd" d="M12.6005 7.99973L13.4449 6.54043L11.9853 5.69682V4.01467H10.3037L9.46047 2.5552L7.99973 3.39951L6.53941 2.55464L5.69549 4.01467H4.01401V5.69615L2.55421 6.53993L3.39903 8L2.55404 9.46033L4.01334 10.3039V11.9853H5.69549L6.53927 13.4451L7.99907 12.6005L9.46 13.4449L10.3029 11.9853H11.9847V10.3039L13.4446 9.46L12.6005 7.99973V7.99973M10.1833 14.3253C10.0948 14.4783 9.94913 14.5899 9.7784 14.6355C9.6076 14.6812 9.42573 14.6571 9.27267 14.5687L7.99933 13.8327L6.72733 14.5687C6.62467 14.628 6.50934 14.6587 6.39334 14.6587C6.27645 14.658 6.16175 14.6269 6.06052 14.5685C5.95929 14.51 5.87503 14.4262 5.81601 14.3253L5.08001 13.052H3.61334C3.43653 13.052 3.26696 12.9817 3.14193 12.8567C3.01691 12.7317 2.94667 12.5621 2.94667 12.3853V10.9193L1.67334 10.1833C1.52081 10.0942 1.4097 9.9484 1.36424 9.77767C1.31879 9.60693 1.34267 9.4252 1.43067 9.272L2.16667 8L1.43067 6.728C1.38677 6.65219 1.35823 6.56848 1.3467 6.48164C1.33517 6.3948 1.34087 6.30654 1.36347 6.22191C1.38607 6.13727 1.42512 6.05791 1.47841 5.98838C1.53169 5.91885 1.59815 5.8605 1.67401 5.81667L2.94734 5.08067V3.61467C2.94734 3.43785 3.01757 3.26829 3.1426 3.14326C3.26763 3.01824 3.43719 2.948 3.61401 2.948H5.08001L5.81601 1.67467C5.90441 1.52155 6.05002 1.40983 6.22081 1.36407C6.39159 1.31831 6.57355 1.34227 6.72667 1.43067L8 2.16733L9.27333 1.43133C9.3492 1.38753 9.43287 1.3591 9.51973 1.34766C9.60653 1.33622 9.69473 1.342 9.77933 1.36467C9.95007 1.41047 10.0957 1.52222 10.184 1.67533L10.9193 2.948H12.3853C12.5621 2.948 12.7317 3.01824 12.8567 3.14326C12.9817 3.26829 13.052 3.43785 13.052 3.61467V5.08133L14.3253 5.81733C14.4783 5.90585 14.5899 6.05151 14.6355 6.22229C14.6812 6.39306 14.6571 6.57496 14.5687 6.728L13.8327 8L14.568 9.272C14.6119 9.3478 14.6405 9.43153 14.652 9.51833C14.6635 9.6052 14.6578 9.69347 14.6352 9.77807C14.6126 9.86273 14.5735 9.94207 14.5203 10.0116C14.467 10.0811 14.4005 10.1395 14.3247 10.1833L13.0513 10.9193V12.3853C13.0513 12.5621 12.9811 12.7317 12.8561 12.8567C12.7311 12.9817 12.5615 13.052 12.3847 13.052H10.9187L10.1833 14.3253V14.3253" fill="#020817"/>
<path id="Vector_2" d="M6.00067 5.33267C6.26597 5.33275 6.52037 5.43823 6.70793 5.62589C6.89547 5.81355 7.00073 6.06803 7.00067 6.33333C7.0006 6.59864 6.89513 6.85307 6.70747 7.0406C6.51978 7.22813 6.26531 7.3334 6 7.33333C5.73469 7.33327 5.48029 7.2278 5.29275 7.04013C5.10522 6.85247 4.99991 6.59797 5 6.33267C5.00009 6.06736 5.10557 5.81296 5.29323 5.62542C5.48089 5.43789 5.73536 5.33258 6.00067 5.33267V5.33267" fill="#020817"/>
<path id="Vector_3" d="M6.5327 11.052L5.46603 10.2527L9.46607 4.91931L10.5327 5.71865L6.5327 11.052V11.052" fill="#020817"/>
<path id="Vector_4" d="M10 10.6667C9.86867 10.6666 9.73853 10.6407 9.6172 10.5904C9.49587 10.5401 9.3856 10.4663 9.29273 10.3735C9.19987 10.2805 9.12627 10.1702 9.076 10.0489C9.0258 9.92747 8.99993 9.79733 9 9.666C9.00007 9.53467 9.02593 9.40453 9.07627 9.2832C9.1266 9.16187 9.20033 9.0516 9.2932 8.95873C9.38613 8.86587 9.49647 8.79227 9.6178 8.742C9.7392 8.6918 9.86933 8.66593 10.0007 8.666C10.266 8.66607 10.5204 8.77153 10.7079 8.9592C10.8955 9.14687 11.0007 9.40133 11.0007 9.66667C11.0006 9.932 10.8951 10.1864 10.7075 10.3739C10.5198 10.5615 10.2653 10.6667 10 10.6667V10.6667" fill="#020817"/>
</g>
</svg>
