<svg preserveAspectRatio="none" overflow="visible" style="display: block;" width="51" height="27" viewBox="0 0 51 27" fill="none" xmlns="http://www.w3.org/2000/svg">
<g id="SVG">
<path id="Vector" fill-rule="evenodd" clip-rule="evenodd" d="M4.786 3.106H12.926C18.001 3.106 20.843 5.785 20.843 9.788C20.843 15.265 17.003 18.718 10.843 18.718H7.791L6.541 24.581H0.247L1.317 19.521C7.817 18.212 11.634 13.231 11.634 13.231L13.802 15.071L15.403 6.291L6.999 9.295L9.039 11.026C9.039 11.026 6.662 14.341 1.992 16.322L4.786 3.106ZM36.186 24.581H30.294L30.784 22.259H30.517C29.311 23.971 27.674 24.819 25.606 24.819C22.228 24.819 20.129 22.438 20.129 18.583C20.129 12.467 23.627 7.913 28.344 7.913C30.71 7.913 32.556 9.044 33.077 10.8H33.359L33.925 8.151H39.685L36.186 24.581ZM28.538 20.339C30.413 20.339 32.05 18.003 32.05 15.354C32.05 13.643 31.157 12.541 29.773 12.541C27.808 12.541 26.231 14.789 26.231 17.571C26.231 19.238 27.154 20.339 28.538 20.339ZM42.825 3.106L38.256 24.581H44.149L48.719 3.106H42.825Z" fill="#9EFF00"/>
</g>
</svg>
