<svg preserveAspectRatio="none" overflow="visible" style="display: block;" width="23.3333" height="23.3333" viewBox="0 0 23.3333 23.3333" fill="none" xmlns="http://www.w3.org/2000/svg">
<path id="Vector" d="M18.6667 18.6667C19.2855 18.6667 19.8789 18.9125 20.3166 19.3501C20.7542 19.7877 21 20.3812 21 21C21 21.6188 20.7542 22.2123 20.3166 22.6499C19.8789 23.0875 19.2855 23.3333 18.6667 23.3333C18.0479 23.3333 17.4544 23.0875 17.0168 22.6499C16.5791 22.2123 16.3333 21.6188 16.3333 21C16.3333 19.705 17.3717 18.6667 18.6667 18.6667ZM0 0H3.815L4.91167 2.33333H22.1667C22.4761 2.33333 22.7729 2.45625 22.9916 2.67504C23.2104 2.89383 23.3333 3.19058 23.3333 3.5C23.3333 3.69833 23.275 3.89667 23.1933 4.08333L19.0167 11.6317C18.62 12.3433 17.85 12.8333 16.975 12.8333H8.28333L7.23333 14.735L7.19833 14.875C7.19833 14.9523 7.22906 15.0265 7.28376 15.0813C7.33846 15.136 7.41265 15.1667 7.49 15.1667H21V17.5H7C6.38116 17.5 5.78767 17.2542 5.35009 16.8166C4.9125 16.3789 4.66667 15.7855 4.66667 15.1667C4.66667 14.7583 4.77167 14.3733 4.94667 14.0467L6.53333 11.1883L2.33333 2.33333H0V0ZM7 18.6667C7.61883 18.6667 8.21233 18.9125 8.64991 19.3501C9.08751 19.7877 9.33333 20.3812 9.33333 21C9.33333 21.6188 9.08751 22.2123 8.64991 22.6499C8.21233 23.0875 7.61883 23.3333 7 23.3333C6.38116 23.3333 5.78767 23.0875 5.35009 22.6499C4.9125 22.2123 4.66667 21.6188 4.66667 21C4.66667 19.705 5.705 18.6667 7 18.6667ZM17.5 10.5L20.7433 4.66667H5.99667L8.75 10.5H17.5Z" fill="#090A0B"/>
</svg>
